%TF.GenerationSoftware,KiCad,Pcbnew,9.0.4*%
%TF.CreationDate,2025-10-16T23:04:56-05:00*%
%TF.ProjectId,new project,6e657720-7072-46f6-9a65-63742e6b6963,rev?*%
%TF.SameCoordinates,Original*%
%TF.FileFunction,Copper,L1,Top*%
%TF.FilePolarity,Positive*%
%FSLAX46Y46*%
G04 Gerber Fmt 4.6, Leading zero omitted, Abs format (unit mm)*
G04 Created by KiCad (PCBNEW 9.0.4) date 2025-10-16 23:04:56*
%MOMM*%
%LPD*%
G01*
G04 APERTURE LIST*
G04 Aperture macros list*
%AMRoundRect*
0 Rectangle with rounded corners*
0 $1 Rounding radius*
0 $2 $3 $4 $5 $6 $7 $8 $9 X,Y pos of 4 corners*
0 Add a 4 corners polygon primitive as box body*
4,1,4,$2,$3,$4,$5,$6,$7,$8,$9,$2,$3,0*
0 Add four circle primitives for the rounded corners*
1,1,$1+$1,$2,$3*
1,1,$1+$1,$4,$5*
1,1,$1+$1,$6,$7*
1,1,$1+$1,$8,$9*
0 Add four rect primitives between the rounded corners*
20,1,$1+$1,$2,$3,$4,$5,0*
20,1,$1+$1,$4,$5,$6,$7,0*
20,1,$1+$1,$6,$7,$8,$9,0*
20,1,$1+$1,$8,$9,$2,$3,0*%
G04 Aperture macros list end*
%TA.AperFunction,ComponentPad*%
%ADD10C,1.600000*%
%TD*%
%TA.AperFunction,ComponentPad*%
%ADD11RoundRect,0.249999X-0.850001X0.850001X-0.850001X-0.850001X0.850001X-0.850001X0.850001X0.850001X0*%
%TD*%
%TA.AperFunction,ComponentPad*%
%ADD12C,2.200000*%
%TD*%
%TA.AperFunction,ComponentPad*%
%ADD13RoundRect,0.250001X-0.759999X0.499999X-0.759999X-0.499999X0.759999X-0.499999X0.759999X0.499999X0*%
%TD*%
%TA.AperFunction,ComponentPad*%
%ADD14O,2.020000X1.500000*%
%TD*%
%TA.AperFunction,SMDPad,CuDef*%
%ADD15RoundRect,0.375000X0.375000X-0.625000X0.375000X0.625000X-0.375000X0.625000X-0.375000X-0.625000X0*%
%TD*%
%TA.AperFunction,SMDPad,CuDef*%
%ADD16RoundRect,0.500000X1.400000X-0.500000X1.400000X0.500000X-1.400000X0.500000X-1.400000X-0.500000X0*%
%TD*%
%TA.AperFunction,SMDPad,CuDef*%
%ADD17RoundRect,0.225000X-0.225000X-0.250000X0.225000X-0.250000X0.225000X0.250000X-0.225000X0.250000X0*%
%TD*%
%TA.AperFunction,ComponentPad*%
%ADD18RoundRect,0.250001X0.759999X-0.499999X0.759999X0.499999X-0.759999X0.499999X-0.759999X-0.499999X0*%
%TD*%
%TA.AperFunction,ViaPad*%
%ADD19C,0.600000*%
%TD*%
%TA.AperFunction,Conductor*%
%ADD20C,0.500000*%
%TD*%
G04 APERTURE END LIST*
D10*
%TO.P,R1,1*%
%TO.N,Net-(D1-A)*%
X130250000Y-73420000D03*
%TO.P,R1,2*%
%TO.N,Net-(Q1-B)*%
X130250000Y-83580000D03*
%TD*%
D11*
%TO.P,D1,1,K*%
%TO.N,Net-(D1-K)*%
X125000000Y-63670000D03*
D12*
%TO.P,D1,2,A*%
%TO.N,Net-(D1-A)*%
X125000000Y-73830000D03*
%TD*%
D13*
%TO.P,J2,1,Pin_1*%
%TO.N,GND*%
X135250000Y-70000000D03*
D14*
%TO.P,J2,2,Pin_2*%
%TO.N,Net-(D1-K)*%
X135250000Y-73000000D03*
%TD*%
D15*
%TO.P,Q1,1,B*%
%TO.N,Net-(Q1-B)*%
X116950000Y-86400000D03*
%TO.P,Q1,2,C*%
%TO.N,Net-(J1-Pin_2)*%
X119250000Y-86400000D03*
D16*
X119250000Y-80100000D03*
D15*
%TO.P,Q1,3,E*%
%TO.N,Net-(Q1-E)*%
X121550000Y-86400000D03*
%TD*%
%TO.P,Q2,1,B*%
%TO.N,Net-(Q1-E)*%
X124200000Y-95650000D03*
%TO.P,Q2,2,C*%
%TO.N,Net-(Q1-B)*%
X126500000Y-95650000D03*
D16*
X126500000Y-89350000D03*
D15*
%TO.P,Q2,3,E*%
%TO.N,GND*%
X128800000Y-95650000D03*
%TD*%
D17*
%TO.P,C1,1*%
%TO.N,Net-(Q1-B)*%
X135225000Y-86500000D03*
%TO.P,C1,2*%
%TO.N,GND*%
X136775000Y-86500000D03*
%TD*%
D18*
%TO.P,J1,1,Pin_1*%
%TO.N,Net-(D1-K)*%
X117715000Y-72500000D03*
D14*
%TO.P,J1,2,Pin_2*%
%TO.N,Net-(J1-Pin_2)*%
X117715000Y-69500000D03*
%TD*%
D10*
%TO.P,R2,1*%
%TO.N,Net-(Q1-E)*%
X113500000Y-87170000D03*
%TO.P,R2,2*%
%TO.N,GND*%
X113500000Y-97330000D03*
%TD*%
D19*
%TO.N,GND*%
X117750000Y-97250000D03*
X137000000Y-86500000D03*
X129000000Y-95750000D03*
%TO.N,Net-(J1-Pin_2)*%
X119250000Y-86400000D03*
X119250000Y-80250000D03*
%TO.N,Net-(Q1-B)*%
X126500000Y-95650000D03*
X125000000Y-86750000D03*
X126500000Y-89500000D03*
X117000000Y-86250000D03*
%TD*%
D20*
%TO.N,Net-(Q1-E)*%
X113500000Y-87170000D02*
X114949000Y-85721000D01*
X114949000Y-85721000D02*
X114949000Y-85101488D01*
%TO.N,GND*%
X117750000Y-97250000D02*
X113580000Y-97250000D01*
X113580000Y-97250000D02*
X113500000Y-97330000D01*
%TO.N,Net-(D1-K)*%
X125000000Y-63670000D02*
X134330000Y-73000000D01*
X134330000Y-73000000D02*
X135250000Y-73000000D01*
%TO.N,Net-(Q1-E)*%
X121550000Y-86400000D02*
X121550000Y-93000000D01*
X121550000Y-93000000D02*
X124200000Y-95650000D01*
%TO.N,GND*%
X117670000Y-97330000D02*
X117750000Y-97250000D01*
%TO.N,Net-(Q1-B)*%
X130250000Y-83580000D02*
X132305000Y-83580000D01*
X132305000Y-83580000D02*
X135074000Y-86349000D01*
X135074000Y-86349000D02*
X135074000Y-86500000D01*
X130250000Y-83580000D02*
X130250000Y-85600000D01*
X130250000Y-85600000D02*
X126500000Y-89350000D01*
%TO.N,Net-(J1-Pin_2)*%
X117715000Y-69500000D02*
X116067159Y-69500000D01*
X116067159Y-69500000D02*
X115396000Y-70171159D01*
X115396000Y-70171159D02*
X115396000Y-76246000D01*
X115396000Y-76246000D02*
X119250000Y-80100000D01*
%TO.N,Net-(D1-K)*%
X125000000Y-63670000D02*
X125000000Y-65304841D01*
X125000000Y-65304841D02*
X117804841Y-72500000D01*
X117804841Y-72500000D02*
X117715000Y-72500000D01*
%TO.N,Net-(D1-A)*%
X125000000Y-73830000D02*
X129840000Y-73830000D01*
X129840000Y-73830000D02*
X130250000Y-73420000D01*
%TO.N,GND*%
X128800000Y-96650000D02*
X128800000Y-95650000D01*
%TO.N,Net-(J1-Pin_2)*%
X119250000Y-86400000D02*
X119250000Y-86250000D01*
X120146000Y-79204000D02*
X119250000Y-80100000D01*
X119258721Y-86046331D02*
X119275108Y-85911378D01*
X119250513Y-86182028D02*
X119258721Y-86046331D01*
X119275108Y-85911378D02*
X119299612Y-85777660D01*
X119250000Y-86250000D02*
X119250513Y-86182028D01*
%TO.N,Net-(Q1-B)*%
X116462500Y-86887500D02*
X116950000Y-86400000D01*
X126500000Y-89350000D02*
X126500000Y-88250000D01*
X126324000Y-89174000D02*
X126500000Y-89350000D01*
X135036500Y-86462500D02*
X135074000Y-86500000D01*
X126500000Y-88250000D02*
G75*
G03*
X125000000Y-86750000I-1500000J0D01*
G01*
X126285082Y-89135082D02*
G75*
G02*
X126500018Y-89350000I18J-214918D01*
G01*
%TO.N,Net-(Q1-E)*%
X114949000Y-85101488D02*
X115901488Y-84149000D01*
X120299000Y-84149000D02*
X121550000Y-85400000D01*
X121550000Y-85400000D02*
X121550000Y-86400000D01*
X115901488Y-84149000D02*
X120299000Y-84149000D01*
%TD*%
M02*
